#!OML:ASF I:\Actors\actors\Patient Classification 1\Patient 1\Session 1\Subject1.ASF
:FULLY-SPECIFIED
:DEGREES
535
root 1.147 17.5052 9.38356 7.71315 1.99487 -7.79199
lowerback -1.02106 2.28239 6.16447
upperback -8.51126 3.33992 0.425226
thorax -8.07387 1.2381 -3.1806
lowerneck -3.74531 -5.50673 -2.18157
upperneck 1.70764 -7.67974 12.8131
head 1.89372 -3.62908 4.40349
rclavicle -1.10325e-014 -1.03368e-014
rhumerus 19.8889 29.8891 -59.533
rradius 142.124
rwrist -59.1908
rhand 1.50278 -64.6476
rfingers 7.12502
rthumb 27.029 -267.267
lclavicle -1.10325e-014 -1.03368e-014
lhumerus -52.5939 19.5811 71.7133
lradius 87.1931
lwrist 19.137
lhand -36.1183 -2.32541
lfingers 7.12502
lthumb -9.22397 27.4528
rfemur -2.69546 22.832 23.5092
rtibia 5.39088
rfoot -15.1503 -27.7076
rtoes 4.97594
lfemur 6.25807 -42.6345 -15.8081
ltibia -5.03755
lfoot -16.1348 48.9507
ltoes 9.2954
536
root 1.14448 17.5054 9.37972 7.74491 1.99428 -7.75509
lowerback -1.07903 2.25236 6.04441
upperback -8.47813 3.29031 0.444968
thorax -8.01373 1.22568 -3.08718
lowerneck -3.67986 -5.51563 -1.94169
upperneck 1.94343 -7.71816 12.5846
head 1.93818 -3.64355 4.27364
rclavicle -1.88845e-015 1.11319e-014
rhumerus 19.0623 30.3227 -60.1273
rradius 142.071
rwrist -58.8713
rhand 2.05549 -64.4733
rfingers 7.12502
rthumb 27.5577 -267.524
lclavicle -1.88845e-015 1.11319e-014
lhumerus -52.628 19.5801 71.7467
lradius 87.182
lwrist 19.0964
lhand -36.1625 -2.21325
lfingers 7.12502
lthumb -9.26663 27.5631
rfemur -2.77155 22.833 23.453
rtibia 5.42508
rfoot -15.1029 -27.7256
rtoes 4.93401
lfemur 6.13623 -42.5272 -15.7552
ltibia -5.00069
lfoot -16.0908 48.8504
ltoes 9.34005
537
root 1.14263 17.5056 9.37581 7.75147 1.98972 -7.69504
lowerback -1.12168 2.2137 5.90225
upperback -8.44815 3.23066 0.47727
thorax -7.96838 1.20964 -2.96868
lowerneck -3.65081 -5.53001 -1.95846
upperneck 2.36726 -7.78212 12.5496
head 2.078 -3.66156 4.26145
rclavicle -1.31198e-014 -1.27222e-014
rhumerus 18.1071 30.8456 -60.8873
rradius 142.034
rwrist -58.6277
rhand 2.59429 -64.6111
rfingers 7.12502
rthumb 28.0728 -267.469
lclavicle -1.31198e-014 -1.27222e-014
lhumerus -52.7345 19.5652 71.7829
lradius 87.1607
lwrist 19.0607
lhand -36.2378 -2.18325
lfingers 7.12502
lthumb -9.33922 27.5899
rfemur -2.81502 22.7718 23.3752
rtibia 5.46058
rfoot -15.0989 -27.679
rtoes 4.84715
lfemur 6.06454 -42.4437 -15.7693
ltibia -4.96745
lfoot -16.0755 48.7596
ltoes 9.23754
538
root 1.1409 17.506 9.37142 7.74044 1.94514 -7.66283
lowerback -1.09613 2.28861 5.84536
upperback -8.33274 3.32072 0.398123
thorax -7.84515 1.26116 -3.02288
lowerneck -3.92708 -5.65258 -1.52556
upperneck 2.69252 -7.99139 12.1848
head 2.21049 -3.74581 4.03025
rclavicle 1.08338e-014 1.03368e-014
rhumerus 17.0443 31.096 -61.6501
rradius 142.062
rwrist -58.5928
rhand 2.68182 -64.7524
rfingers 7.12502
rthumb 28.1565 -267.342
lclavicle 1.08338e-014 1.03368e-014
lhumerus -52.4792 19.2803 71.9583
lradius 87.0543
lwrist 18.9666
lhand -36.3149 -2.43956
lfingers 7.12502
lthumb -9.41368 27.3302
rfemur -2.8537 22.642 23.3207
rtibia 5.49878
rfoot -15.0454 -27.5336
rtoes 4.61217
lfemur 6.06808 -42.4355 -15.8202
ltibia -4.93655
lfoot -16.0852 48.7852
ltoes 9.07132
539
root 1.13936 17.5059 9.36597 7.73958 1.91458 -7.72287
lowerback -1.04868 2.38058 5.89976
upperback -8.18375 3.43857 0.330421
thorax -7.69163 1.32094 -3.12787
lowerneck -4.47213 -5.68657 -1.13829
upperneck 3.28774 -8.12292 11.9611
head 2.48711 -3.76926 3.85693
rclavicle 2.5842e-015 -3.18055e-014
rhumerus 16.046 31.275 -62.3027
rradius 142.114
rwrist -58.6103
rhand 2.68893 -64.8833
rfingers 7.12502
rthumb 28.1633 -267.212
lclavicle 2.5842e-015 -3.18055e-014
lhumerus -52.1487 18.935 72.1755
lradius 86.9727
lwrist 18.9029
lhand -36.266 -2.58495
lfingers 7.12502
lthumb -9.36645 27.1869
rfemur -2.90494 22.5261 23.3647
rtibia 5.51599
rfoot -14.9488 -27.4047
rtoes 4.48371
lfemur 6.05101 -42.4367 -15.7485
ltibia -4.90896
lfoot -16.1815 48.8081
ltoes 9.22367
540
root 1.13823 17.5055 9.36011 7.75968 1.90202 -7.80023
lowerback -1.0786 2.26275 5.89113
upperback -8.17251 3.29044 0.542002
thorax -7.68874 1.25672 -2.89217
lowerneck -4.22323 -5.5279 -1.64712
upperneck 3.72023 -7.93019 12.1079
head 2.60793 -3.67042 4.02242
rclavicle 2.00773e-014 2.18663e-014
rhumerus 15.1628 32.1766 -62.9313
rradius 142.131
rwrist -58.6246
rhand 2.72394 -65.1043
rfingers 7.12502
rthumb 28.1967 -266.997
lclavicle 2.00773e-014 2.18663e-014
lhumerus -52.595 19.1613 72.1964
lradius 87.0751
lwrist 18.9737
lhand -36.288 -2.48026
lfingers 7.12502
lthumb -9.38767 27.2907
rfemur -2.97198 22.4441 23.4214
rtibia 5.52448
rfoot -14.8987 -27.2904
rtoes 4.68323
lfemur 5.94619 -42.3259 -15.576
ltibia -4.88691
lfoot -16.2452 48.7078
ltoes 9.34982
541
root 1.13656 17.5056 9.35468 7.78972 1.83645 -7.78438
lowerback -1.01106 2.56241 5.92648
upperback -7.86429 3.6634 0.192753
thorax -7.33188 1.44366 -3.2893
lowerneck -5.85854 -5.85079 -0.647216
upperneck 4.9504 -8.59838 12.0698
head 3.00546 -3.85754 3.3472
rclavicle 2.31584e-014 -2.46493e-014
rhumerus 14.1251 31.5286 -63.6958
rradius 142.087
rwrist -58.4567
rhand 2.95008 -65.051
rfingers 7.12502
rthumb 28.4129 -267.086
lclavicle 2.31584e-014 -2.46493e-014
lhumerus -51.5757 18.1935 72.6422
lradius 86.9224
lwrist 19.0286
lhand -36.2796 -2.32558
lfingers 7.12502
lthumb -9.37958 27.4457
rfemur -3.05328 22.4305 23.3687
rtibia 5.54345
rfoot -14.8847 -27.1965
rtoes 4.82872
lfemur 5.8436 -42.2006 -15.5085
ltibia -4.8702
lfoot -16.22 48.6354
ltoes 9.18857
542
root 1.13409 17.5057 9.3479 7.80762 1.72377 -7.76078
lowerback -1.00115 2.55998 5.81891
upperback -7.76807 3.65574 0.241492
thorax -7.24125 1.4534 -3.17572
lowerneck -6.13216 -5.87182 -0.578857
upperneck 5.73698 -8.70789 11.7874
head 3.27748 -3.87613 3.22799
rclavicle -1.07344e-014 -7.95139e-016
rhumerus 13.0795 32.03 -64.4453
rradius 142.058
rwrist -58.4531
rhand 2.93288 -64.9453
rfingers 7.12502
rthumb 28.3964 -267.189
lclavicle -1.07344e-014 -7.95139e-016
lhumerus -51.6681 18.1425 72.7477
lradius 86.9486
lwrist 19.0361
lhand -36.2554 -2.17393
lfingers 7.12502
lthumb -9.35626 27.5984
rfemur -3.12207 22.5117 23.3216
rtibia 5.55885
rfoot -14.8462 -27.1869
rtoes 4.74131
lfemur 5.82822 -42.227 -15.5244
ltibia -4.86839
lfoot -16.2191 48.7569
ltoes 9.10965
543
root 1.1325 17.505 9.33862 7.8117 1.61785 -7.76284
lowerback -1.05693 2.25233 5.66034
upperback -7.87549 3.26448 0.682243
thorax -7.39528 1.27893 -2.60938
lowerneck -5.08414 -5.46758 -1.4425
upperneck 6.33282 -8.13613 11.8306
head 3.27745 -3.62469 3.43614
rclavicle 9.24349e-015 1.47101e-014
rhumerus 11.9961 33.6749 -65.2114
rradius 141.993
rwrist -58.4614
rhand 2.53964 -64.9766
rfingers 7.12502
rthumb 28.0206 -267.095
lclavicle 9.24349e-015 1.47101e-014
lhumerus -52.8115 18.844 72.5831
lradius 87.1341
lwrist 19.1593
lhand -36.3479 -2.25801
lfingers 7.12502
lthumb -9.44554 27.5103
rfemur -3.18938 22.5732 23.3033
rtibia 5.58243
rfoot -14.7766 -27.1719
rtoes 4.63179
lfemur 5.8335 -42.2977 -15.5373
ltibia -4.85979
lfoot -16.3963 48.9016
ltoes 9.4159
544
root 1.13253 17.5044 9.32836 7.80552 1.53636 -7.71509
lowerback -1.00747 2.25268 5.61942
upperback -7.76856 3.26314 0.699639
thorax -7.30998 1.28584 -2.56809
lowerneck -5.23087 -5.47789 -1.45181
upperneck 7.12917 -8.22934 11.7072
head 3.54199 -3.63778 3.38389
rclavicle 2.55438e-014 1.03368e-014
rhumerus 10.8065 34.1861 -66.0244
rradius 141.89
rwrist -58.4211
rhand 2.29201 -64.8829
rfingers 7.12502
rthumb 27.7838 -267.151
lclavicle 2.55438e-014 1.03368e-014
lhumerus -52.8479 18.5102 72.7724
lradius 87.1409
lwrist 19.3639
lhand -36.3378 -2.31855
lfingers 7.12502
lthumb -9.43574 27.4502
rfemur -3.25363 22.5581 23.218
rtibia 5.61416
rfoot -14.719 -27.0911
rtoes 4.51143
lfemur 5.80756 -42.2834 -15.5897
ltibia -4.82716
lfoot -16.6514 48.91
ltoes 9.86479
545
root 1.13303 17.5054 9.31874 7.79179 1.47388 -7.66654
lowerback -0.971871 2.27481 5.60509
upperback -7.62737 3.28731 0.683469
thorax -7.17433 1.30454 -2.57631
lowerneck -5.53507 -5.56086 -1.37015
upperneck 8.03993 -8.4321 11.4684
head 3.8672 -3.69744 3.26991
rclavicle 9.69075e-015 3.18055e-015
rhumerus 9.62326 34.5442 -66.8213
rradius 141.819
rwrist -58.6105
rhand 2.18118 -64.7402
rfingers 7.12502
rthumb 27.6778 -267.276
lclavicle 9.69075e-015 3.18055e-015
lhumerus -52.8233 18.1682 72.982
lradius 87.1683
lwrist 19.4788
lhand -36.3538 -2.17905
lfingers 7.12502
lthumb -9.45116 27.589
rfemur -3.29348 22.5362 23.1371
rtibia 5.63519
rfoot -14.6963 -27.0271
rtoes 4.46198
lfemur 5.76838 -42.2053 -15.6249
ltibia -4.804
lfoot -16.5984 48.872
ltoes 9.90663
546
root 1.13317 17.5062 9.31023 7.7823 1.43222 -7.71915
lowerback -0.960257 2.27067 5.67774
upperback -7.4744 3.27989 0.722229
thorax -7.01471 1.30509 -2.57249
lowerneck -5.59281 -5.57826 -1.2793
upperneck 8.62475 -8.50995 11.2873
head 4.04689 -3.7151 3.18907
rclavicle -3.62782e-014 -1.66979e-014
rhumerus 8.50398 34.8269 -67.5709
rradius 141.763
rwrist -58.8741
rhand 2.10336 -64.729
rfingers 7.12502
rthumb 27.6034 -267.276
lclavicle -3.62782e-014 -1.66979e-014
lhumerus -52.8529 17.9356 73.1967
lradius 87.2161
lwrist 19.5684
lhand -36.4703 -2.03172
lfingers 7.12502
lthumb -9.56363 27.7312
rfemur -3.33183 22.5365 23.1778
rtibia 5.64094
rfoot -14.6549 -26.9935
rtoes 4.52156
lfemur 5.7385 -42.1453 -15.5296
ltibia -4.82156
lfoot -16.4498 48.875
ltoes 9.83524
547
root 1.13319 17.506 9.30033 7.78209 1.40697 -7.8469
lowerback -0.943131 2.21497 5.79085
upperback -7.31532 3.20872 0.835414
thorax -6.86017 1.27416 -2.5109
lowerneck -5.68932 -5.55358 -1.43787
upperneck 9.33116 -8.5492 11.358
head 4.28924 -3.70353 3.22591
rclavicle -9.29318e-015 -7.55382e-015
rhumerus 7.5082 35.2569 -68.2413
rradius 141.727
rwrist -59.0151
rhand 2.02069 -64.8473
rfingers 7.12502
rthumb 27.5244 -267.145
lclavicle -9.29318e-015 -7.55382e-015
lhumerus -52.9637 17.8506 73.4144
lradius 87.3507
lwrist 19.6585
lhand -36.3232 -1.6829
lfingers 7.12502
lthumb -9.42164 28.0865
rfemur -3.39735 22.5373 23.3074
rtibia 5.66955
rfoot -14.6019 -26.9488
rtoes 4.49123
lfemur 5.71224 -42.1742 -15.3513
ltibia -4.84781
lfoot -16.4851 48.945
ltoes 9.89465
548
root 1.13298 17.5062 9.28619 7.80556 1.38667 -7.88699
lowerback -0.951767 2.09515 5.76324
upperback -7.31151 3.05545 0.998276
thorax -6.87393 1.205 -2.31863
lowerneck -5.06611 -5.4056 -1.5974
upperneck 9.89785 -8.36922 11.234
head 4.34294 -3.62569 3.23952
rclavicle -2.68359e-015 -3.57812e-015
rhumerus 6.15439 36.0555 -69.1456
rradius 141.679
rwrist -59.0461
rhand 1.97791 -64.9557
rfingers 7.12502
rthumb 27.4835 -267.03
lclavicle -2.68359e-015 -3.57812e-015
lhumerus -53.5304 17.8336 73.4867
lradius 87.5744
lwrist 19.6932
lhand -35.9482 -1.22381
lfingers 7.12502
lthumb -9.05983 28.5616
rfemur -3.5243 22.552 23.3221
rtibia 5.7527
rfoot -14.5905 -26.9304
rtoes 4.48963
lfemur 5.58753 -42.1815 -15.2219
ltibia -4.82129
lfoot -16.4932 48.9671
ltoes 9.87476
549
root 1.13199 17.5068 9.27024 7.82723 1.33028 -7.82527
lowerback -0.805089 2.20035 5.74652
upperback -7.11159 3.18917 0.851092
thorax -6.7236 1.27504 -2.47069
lowerneck -5.70811 -5.51125 -1.13425
upperneck 10.8675 -8.6472 11.0104
head 4.73883 -3.69331 3.05391
rclavicle 2.26615e-014 1.66979e-014
rhumerus 4.92723 35.9477 -69.9761
rradius 141.589
rwrist -58.9992
rhand 2.00692 -64.9409
rfingers 7.12502
rthumb 27.5112 -267.049
lclavicle 2.26615e-014 1.66979e-014
lhumerus -53.1951 17.1264 73.8172
lradius 87.6083
lwrist 19.7921
lhand -35.5222 -1.06164
lfingers 7.12502
lthumb -8.64871 28.7412
rfemur -3.68176 22.5705 23.207
rtibia 5.86142
rfoot -14.5219 -26.9031
rtoes 4.40233
lfemur 5.43003 -42.0942 -15.1866
ltibia -4.77379
lfoot -16.4603 48.9178
ltoes 9.85447
